<svg id="ICON" xmlns="http://www.w3.org/2000/svg" viewBox="0 0 75.83 111.44"><defs><style>.cls-1{fill:#fff;}</style></defs><path d="M0,19.84c.4-2.8,1.5-5.6,3.8-7.3,3.5-2.6,7.6-3.4,11.6-4.4C19.7,7.14,24,6,28.2,5a18.63,18.63,0,0,0,2.5-.9,12.41,12.41,0,0,0,5-3.1A3.06,3.06,0,0,1,40,.73L40.1.8a15.31,15.31,0,0,0,6,3.6c2.6.9,5.3,1.6,8,2.3C58,7.7,62,8.5,65.9,9.5c1,.2,2,.7,3,1,4.5,1.7,6.5,5.2,6.9,9.9.1,1.3-.1,70.7-.4,72.8a9.09,9.09,0,0,1-6.6,7.8c-4.4,1.5-9,2.4-13.4,3.7-2.1.6-4.3,1-6.4,1.5a18.79,18.79,0,0,0-8.7,4.3,3.14,3.14,0,0,1-4.4,0c-2.2-2.3-5.2-3.3-8.3-4.1-5.3-1.3-10.6-2.6-15.9-4a28.62,28.62,0,0,1-5.8-2.2C2.4,98.5.6,95.5,0,91.7Z" transform="translate(0 0.04)"/><path id="CENTER" class="cls-1" d="M25.3,55.74v18.9a24.37,24.37,0,0,0,.1,2.7c.5,4.3,2.1,7,6.2,8.1a25.63,25.63,0,0,0,12.9,0c3.5-.9,5.3-3.3,5.6-6.8a56.18,56.18,0,0,0,.3-5.8V38.74a56.18,56.18,0,0,0-.3-5.8c-.4-4.1-2.5-6.4-6.5-7.3a24.25,24.25,0,0,0-7.6-.4,23.21,23.21,0,0,0-5.1.9,7.23,7.23,0,0,0-5.2,5.7,22,22,0,0,0-.5,4.5C25.3,42.84,25.3,49.24,25.3,55.74Z" transform="translate(0 0.04)"/></svg>