<svg xmlns="http://www.w3.org/2000/svg" viewBox="0 0 512.36 356.43"><defs><style>.cls-1{fill:#fff;}.cls-2{fill:#007a3d;}.cls-3{fill:#ce1126;}</style></defs><g id="Layer_2" data-name="Layer 2"><g id="Layer_1-2" data-name="Layer 1"><path d="M54.93,0h402.5a55.09,55.09,0,0,1,54.93,54.93V301.5a55.09,55.09,0,0,1-54.93,54.93H54.93A55.09,55.09,0,0,1,0,301.5V54.93A55.09,55.09,0,0,1,54.93,0Z"/><path class="cls-1" d="M512.36,237.62H0V63A63.21,63.21,0,0,1,63,0H457a55.52,55.52,0,0,1,55.37,55.37Z"/><path class="cls-2" d="M512.36,118.81H0V54.39A54.54,54.54,0,0,1,54.39,0H457a55.52,55.52,0,0,1,55.37,55.37Z"/><polygon class="cls-3" points="54.58 222.77 83.54 133.66 112.49 222.77 36.69 167.7 130.38 167.7 54.58 222.77"/><polygon class="cls-3" points="227.23 222.77 256.18 133.66 285.13 222.77 209.33 167.7 303.03 167.7 227.23 222.77"/><polygon class="cls-3" points="399.87 222.77 428.82 133.66 457.78 222.77 381.98 167.7 475.67 167.7 399.87 222.77"/></g></g></svg>