<svg xmlns="http://www.w3.org/2000/svg" viewBox="0 0 512.11 356.43"><defs><style>.cls-1{fill:#00247d;}.cls-2{fill:#cf1b2b;}.cls-3{fill:#eee;}</style></defs><g id="Layer_2" data-name="Layer 2"><g id="Layer_1-2" data-name="Layer 1"><path class="cls-1" d="M0,55.64v54H80.06ZM66.35,356.43H184.93v-80Zm260.83-80v80H445.75ZM0,246.76v54l80.09-54ZM445.77,0H327.18V80Zm66.34,300.8v-54H432Zm0-191.13v-54l-80.08,54ZM184.93,0H66.35L184.93,80Z"/><path class="cls-2" d="M357.62,246.76,495.78,340a54.08,54.08,0,0,0,14.08-24L407.22,246.76Zm-172.69,0H154.47L16.33,340A57.28,57.28,0,0,0,43.9,354.85l141-95.16ZM327.18,109.67h30.46L495.78,16.45A57.32,57.32,0,0,0,468.22,1.58l-141,95.16Zm-172.71,0L16.33,16.45a54.3,54.3,0,0,0-14.1,24l102.64,69.24Z"/><path class="cls-3" d="M512.11,219.34H298.73V356.43h28.45v-80l118.57,80h9.46A57.84,57.84,0,0,0,495.78,340L357.62,246.76h49.6L509.86,316a52.29,52.29,0,0,0,2.25-14.42v-.8l-80.11-54h80.11ZM0,219.34v27.42H80.09L0,300.79v.81A53.6,53.6,0,0,0,16.33,340l138.14-93.22h30.46v12.93l-141,95.15a57.9,57.9,0,0,0,13,1.59h9.45l118.58-80v80h28.45V219.34ZM512.11,54.84a53.61,53.61,0,0,0-16.33-38.39L357.64,109.67H327.18V96.74l141-95.16a58.76,58.76,0,0,0-13-1.58h-9.44L327.18,80V0H298.73V137.09H512.11V109.67H432l80.08-54ZM184.93,0V80L66.35,0H56.9A57.72,57.72,0,0,0,16.33,16.45l138.14,93.22h-49.6L2.23,40.43A52.57,52.57,0,0,0,0,54.84v.8l80.06,54H0v27.42H213.38V0Z"/><path class="cls-2" d="M298.73,137.09V0H213.38V137.09H0v82.25H213.38V356.43h85.35V219.34H512.11V137.09Z"/></g></g></svg>