<svg xmlns="http://www.w3.org/2000/svg" viewBox="0 0 10 18.39"><defs><style>.cls-1{fill:#8a1a9b;}.cls-2{fill:#3cb4e5;}</style></defs><g id="Layer_2" data-name="Layer 2"><g id="Layer_1-2" data-name="Layer 1"><path class="cls-1" d="M0,6.31a1.42,1.42,0,0,1,.5-1A4.25,4.25,0,0,1,2,4.77l1.69-.41.34-.11a1.64,1.64,0,0,0,.65-.41.42.42,0,0,1,.59,0,2,2,0,0,0,.79.47c.34.12.69.21,1.05.3L8.7,5a3,3,0,0,1,.39.13A1.38,1.38,0,0,1,10,6.39c0,.17,0,9.32-.06,9.59a1.23,1.23,0,0,1-.86,1c-.58.2-1.19.31-1.77.49-.28.08-.56.14-.85.2a2.33,2.33,0,0,0-1.14.57.42.42,0,0,1-.58,0,2.26,2.26,0,0,0-1.09-.55c-.7-.17-1.4-.34-2.09-.53a4.3,4.3,0,0,1-.78-.29A1.41,1.41,0,0,1,0,15.79C0,15.72,0,6.38,0,6.31Zm3.33,4.74v2.49a2.17,2.17,0,0,0,0,.36A1.08,1.08,0,0,0,4.17,15a3.27,3.27,0,0,0,1.7,0,.94.94,0,0,0,.74-.89,6.62,6.62,0,0,0,0-.77c0-1.5,0-3,0-4.49a6.62,6.62,0,0,0,0-.77,1,1,0,0,0-.85-1,3.41,3.41,0,0,0-1,0,2.94,2.94,0,0,0-.66.11.94.94,0,0,0-.68.75,2.32,2.32,0,0,0-.07.59C3.33,9.34,3.34,10.19,3.34,11.05Z"/><path class="cls-2" d="M2,2.44a1.71,1.71,0,0,1-.67-.52,1.15,1.15,0,0,1-.2-.67A1.21,1.21,0,0,1,1.2.77,1.35,1.35,0,0,1,1.46.39,1.1,1.1,0,0,1,1.84.1,1.13,1.13,0,0,1,2.33,0a1,1,0,0,1,.46.1,1.24,1.24,0,0,1,.39.29,1.65,1.65,0,0,1,.27.38,1.06,1.06,0,0,1,.1.48,1.4,1.4,0,0,1-.12.55,1.87,1.87,0,0,1-.37.56,2.65,2.65,0,0,1-.71.55,10.07,10.07,0,0,1-1.09.54H.64a9.24,9.24,0,0,0,.8-.54A3,3,0,0,0,2,2.44ZM1.74,1.25a.6.6,0,0,0,.16.44.55.55,0,0,0,.43.18.58.58,0,0,0,.42-.18.57.57,0,0,0,.18-.44A.55.55,0,0,0,2.75.82.61.61,0,0,0,2.33.65.58.58,0,0,0,1.9.82.57.57,0,0,0,1.74,1.25Z"/></g></g></svg>