<svg xmlns="http://www.w3.org/2000/svg" viewBox="0 0 437.36 125.47"><defs><style>.cls-1{fill:#a7a9ac;}.cls-2{fill:#8a1a9b;}.cls-3,.cls-5{fill:#3cb4e5;}.cls-4{fill:#73b2e1;}.cls-5{fill-rule:evenodd;}</style></defs><g id="Layer_2" data-name="Layer 2"><g id="Layer_1-2" data-name="Layer 1"><path class="cls-1" d="M313.38,45.86h4.37V66.41h10.41v4H313.38Z"/><path class="cls-1" d="M341,45.86h3.78l10.55,24.5h-5l-2.29-5.61H337.44l-2.22,5.61h-4.88ZM346.54,61l-3.77-10-3.84,10Z"/><path class="cls-1" d="M359.8,45.86h9.65a14.69,14.69,0,0,1,4.68.74,11.4,11.4,0,0,1,4,2.27,11.2,11.2,0,0,1,2.77,3.82,13.14,13.14,0,0,1,1,5.42,11.65,11.65,0,0,1-1.19,5.45,11.81,11.81,0,0,1-3.08,3.81,13.27,13.27,0,0,1-4.19,2.25,14.79,14.79,0,0,1-4.52.74H359.8Zm7.61,20.55a15.53,15.53,0,0,0,3.86-.46,9.15,9.15,0,0,0,3.17-1.46,6.85,6.85,0,0,0,2.13-2.56,8.53,8.53,0,0,0,.77-3.82,9.53,9.53,0,0,0-.69-3.81,6.63,6.63,0,0,0-1.92-2.58,8,8,0,0,0-2.91-1.45,13.67,13.67,0,0,0-3.68-.47h-4V66.41Z"/><path class="cls-1" d="M387.69,45.86h4.36v24.5h-4.36Z"/><path class="cls-1" d="M399.15,45.86h16.23V49.8H403.51v6h11.25v4H403.51v6.64H416v4H399.15Z"/><path class="cls-1" d="M434,51.12a4,4,0,0,0-1.85-1.47,6.35,6.35,0,0,0-2.44-.47,6.43,6.43,0,0,0-1.47.17,4.1,4.1,0,0,0-1.28.55,2.9,2.9,0,0,0-.92,1,2.87,2.87,0,0,0-.35,1.44,2.24,2.24,0,0,0,.87,1.9,8.27,8.27,0,0,0,2.14,1.14c.86.33,1.79.64,2.81.94a11.41,11.41,0,0,1,2.8,1.24,7,7,0,0,1,2.15,2.12,6.3,6.3,0,0,1,.86,3.49,7.58,7.58,0,0,1-.73,3.44A6.81,6.81,0,0,1,434.68,69a8.32,8.32,0,0,1-2.86,1.46,12,12,0,0,1-3.42.48,12.81,12.81,0,0,1-4.4-.76,8.43,8.43,0,0,1-3.63-2.56l3.29-3.18a5.49,5.49,0,0,0,2.09,1.88,5.86,5.86,0,0,0,2.75.68,5.63,5.63,0,0,0,1.52-.21,5,5,0,0,0,1.39-.62,3.27,3.27,0,0,0,1-1.06,2.78,2.78,0,0,0,.38-1.47,2.59,2.59,0,0,0-.86-2.08,8,8,0,0,0-2.15-1.23c-.85-.33-1.79-.65-2.8-.95a11.85,11.85,0,0,1-2.81-1.23A6.7,6.7,0,0,1,422,56.12a6.18,6.18,0,0,1-.87-3.48,6.59,6.59,0,0,1,.78-3.29,7.16,7.16,0,0,1,2-2.3,9.07,9.07,0,0,1,2.89-1.37,12.49,12.49,0,0,1,3.33-.45,12.15,12.15,0,0,1,3.75.59,8.69,8.69,0,0,1,3.27,1.94Z"/><path class="cls-1" d="M310.65,76.77h4.78L320,94.42h.07l5.5-17.65h4.29l5.4,17.65h.07l4.81-17.65h4.43l-7.13,24.5h-4.15l-5.68-18.65h-.07l-5.67,18.65h-4Z"/><path class="cls-1" d="M349.07,76.77H365.3v3.94H353.43v6h11.25v4H353.43v6.65h12.49v3.94H349.07Z"/><path class="cls-1" d="M379.87,76.77h3.77l10.56,24.5h-5l-2.29-5.61H376.31l-2.22,5.61h-4.88Zm5.54,15.16-3.77-10-3.84,10Z"/><path class="cls-1" d="M398.67,76.77h8.51a18.09,18.09,0,0,1,3.41.32,8.76,8.76,0,0,1,2.92,1.13,5.88,5.88,0,0,1,2.05,2.15,7,7,0,0,1,.76,3.42,6.84,6.84,0,0,1-1.47,4.47,6.35,6.35,0,0,1-4.21,2.18l6.51,10.83h-5.26l-5.68-10.38H403v10.38h-4.36Zm7.75,10.38c.62,0,1.24,0,1.87-.09a5.5,5.5,0,0,0,1.71-.41,2.91,2.91,0,0,0,1.26-1,3.11,3.11,0,0,0,.49-1.88A3,3,0,0,0,411.3,82a2.78,2.78,0,0,0-1.18-1,5.37,5.37,0,0,0-1.61-.43,14.55,14.55,0,0,0-1.71-.11H403v6.65Z"/><path class="cls-2" d="M0,41.28A9,9,0,0,1,3.35,35c3-2.21,6.51-3,10-3.8,3.69-.9,7.39-1.79,11.07-2.71.75-.19,1.47-.48,2.2-.73a10.91,10.91,0,0,0,4.28-2.64A2.7,2.7,0,0,1,34.71,25a13.71,13.71,0,0,0,5.16,3.11c2.24.8,4.56,1.38,6.87,2,3.38.83,6.78,1.57,10.16,2.39a21.34,21.34,0,0,1,2.55.88c3.91,1.49,5.63,4.52,5.94,8.51.08,1.1-.1,61-.35,62.74a8,8,0,0,1-5.65,6.76c-3.78,1.3-7.76,2.06-11.58,3.21-1.81.54-3.68.89-5.53,1.3a15.46,15.46,0,0,0-7.47,3.72,2.73,2.73,0,0,1-3.81,0c-1.91-2-4.46-2.88-7.16-3.56-4.56-1.16-9.13-2.25-13.67-3.48a28.44,28.44,0,0,1-5-1.92,9.13,9.13,0,0,1-5.08-7.32C0,102.84,0,41.7,0,41.28Zm21.79,31V88.57a18,18,0,0,0,.07,2.33c.47,3.71,1.85,6.07,5.38,7a21.57,21.57,0,0,0,11.11,0,6.15,6.15,0,0,0,4.85-5.83,49.71,49.71,0,0,0,.28-5q0-14.68,0-29.36c0-1.68-.1-3.36-.26-5-.32-3.49-2.17-5.48-5.59-6.27A22.33,22.33,0,0,0,31.1,46a20.74,20.74,0,0,0-4.36.76,6.19,6.19,0,0,0-4.47,4.89,17.72,17.72,0,0,0-.42,3.84C21.81,61.1,21.83,66.67,21.83,72.24Z"/><path class="cls-2" d="M236.94,20.07a1.48,1.48,0,0,1,2.64.94c-.13,24.14,0,48.28,0,72.42,0,.71,0,1.43,0,2.14a3,3,0,0,0,2.6,2.94,12.42,12.42,0,0,0,2.5.27c2.46,0,4.91-.19,7.37-.19a9.93,9.93,0,0,0,6.47-2.66A1.48,1.48,0,0,1,261,97v17.33a1.49,1.49,0,0,1-1.43,1.5c-6,.22-31.51.13-41.87.09a2,2,0,0,1-1.69-2.89,15.8,15.8,0,0,0,1.42-7.25q0-38.11,0-76.21a1.5,1.5,0,0,1,1.71-1.48,21.06,21.06,0,0,0,6.71-.43C230.69,26.45,234.55,23.05,236.94,20.07Z"/><path class="cls-2" d="M206.93,51.59c0-.39,0-.78,0-1.17a13.87,13.87,0,0,0-5.86-11.07A33.61,33.61,0,0,0,188.73,34c-6-1.48-12.06-2.78-18-4.32a68,68,0,0,1-15.34-5.78,27.07,27.07,0,0,1-4.87-3.19,2.26,2.26,0,0,0-3.7,1.75V99.59h0c0,7.86,0,15.72,0,23.58a2.25,2.25,0,0,0,3.88,1.58,20.85,20.85,0,0,1,9.81-6.17,22,22,0,0,1,6-.5,2.25,2.25,0,0,0,2.42-2.24c0-6.2,0-21.25,0-28.48a.63.63,0,0,1,0-.19A.53.53,0,0,1,169,87l.13-.14c4.45-.27,14.18-.16,15.87.22v27.25a2.25,2.25,0,0,0,2.62,2.23A52.41,52.41,0,0,1,196,116a55.67,55.67,0,0,1,8.33.6,2.27,2.27,0,0,0,2.65-2.23Zm-22,17.31h-16V49.11l10.37,3.29,2.21.7a4.47,4.47,0,0,1,3.24,3.95C185.13,61,184.88,64.89,184.93,68.9Z"/><path class="cls-2" d="M131,35.14a30.38,30.38,0,0,0-9.28-4.68C116,28.53,109.92,27.82,103.92,27a97.78,97.78,0,0,1-16.11-3.22A24.77,24.77,0,0,1,80,20.18,2.25,2.25,0,0,0,76.35,22V99.59h0q0,11.8,0,23.6a2.24,2.24,0,0,0,3.87,1.57A21,21,0,0,1,90,118.58a21.75,21.75,0,0,1,6-.5,2.25,2.25,0,0,0,2.41-2.25v-2.35h0v-14l2.09-.54c7.51-2.09,15-4.15,22.18-7.37A31.33,31.33,0,0,0,131.54,86a13.75,13.75,0,0,0,4.69-9.06c.16-1.87.29-3.74.3-5.62q0-12.24,0-24.49A14,14,0,0,0,131,35.14Zm-21.23,40a40.36,40.36,0,0,1-11.21,5.45v-36L109,47.38c.49.14,1,.24,1.49.4,2.59.83,3.73,2.23,3.89,4.92.11,1.68.12,3.37.13,5,0,2.72-.09,5.45,0,8.16C114.74,69.94,112.86,72.84,109.79,75.14Z"/><path class="cls-3" d="M12.93,16a11.2,11.2,0,0,1-4.38-3.41A7.47,7.47,0,0,1,7.29,8.17a7.81,7.81,0,0,1,.58-3.11A9,9,0,0,1,9.52,2.53,8,8,0,0,1,12.05.68,7.54,7.54,0,0,1,15.26,0a7.1,7.1,0,0,1,3,.68A7.92,7.92,0,0,1,20.8,2.53a11,11,0,0,1,1.75,2.53,6.78,6.78,0,0,1,.68,3.11,9.25,9.25,0,0,1-.78,3.6A13,13,0,0,1,20,15.46a18.87,18.87,0,0,1-4.66,3.6,66.35,66.35,0,0,1-7.1,3.5H4.17a59.76,59.76,0,0,0,5.25-3.5A22.45,22.45,0,0,0,12.93,16ZM11.37,8.17a4.13,4.13,0,0,0,1.07,2.92,3.66,3.66,0,0,0,2.82,1.16A3.76,3.76,0,0,0,18,11.09a4,4,0,0,0,1.17-2.92A3.63,3.63,0,0,0,18,5.35a3.93,3.93,0,0,0-2.72-1.07,3.82,3.82,0,0,0-2.82,1.07A3.78,3.78,0,0,0,11.37,8.17Z"/><polyline class="cls-1" points="284.3 30.39 284.3 113.71 286.25 113.71 286.25 30.39"/><polygon class="cls-3" points="123.11 4.21 96.88 17.41 93.2 15.72 119.43 2.52 123.11 4.21"/><polygon class="cls-4" points="252.03 14.57 252.03 14.58 252.03 14.58 252.03 14.57"/><path class="cls-3" d="M252.51,16.37a4.18,4.18,0,0,1-.19-.61c-.09-.31-.18-.71-.29-1.18h0a3.14,3.14,0,0,0-.43-1,2.61,2.61,0,0,0-.23-.24,2.12,2.12,0,0,0,.95-1.79,2.07,2.07,0,0,0-.66-1.57h0a3.18,3.18,0,0,0-2.23-.66,9.27,9.27,0,0,0-1.76.16l-.3.06v7.41H249V14h.44a.93.93,0,0,1,.66.22,1.49,1.49,0,0,1,.36.81c.09.43.18.79.25,1.08a3.23,3.23,0,0,0,.24.66l.11.19h1.74ZM249,10.76a3.38,3.38,0,0,1,.49,0,1.51,1.51,0,0,1,.91.23.76.76,0,0,1,.29.66.85.85,0,0,1-.29.65,1.29,1.29,0,0,1-.87.27H249Z"/><path class="cls-5" d="M249.76,5.09a8.09,8.09,0,1,0,8.08,8.08A8.08,8.08,0,0,0,249.76,5.09Zm4,12.07a5.61,5.61,0,1,1,1.66-4A5.6,5.6,0,0,1,253.74,17.16Z"/></g></g></svg>